# xmcd
#
# Track frame offsets: 
#        150
#        12140
#        23617
#        34942
#        43267
#        52367
#        63895
#        72735
#        85157
#        96000
#        105927
#        114247
#        126157
#        139152
#        151680
#        164010
#        175700
#        185962
#        195957
#        207615
#        219590
#        230902
#        240835
#        251520
#        263572
#        274125
#        284820
#        295707
#        307512
#        321097
#
# Disc length: 4456 seconds
#
# Revision: 4
# Processed by: cddbd v1.5.2PL0 Copyright (c) Steve Scherf et al.
# Submitted via: ExactAudioCopyFreeDBPlugin 1.0
#
DISCID=b211661e
DTITLE=Various Artist - Crescent City Soul:  The Sound of New Orleans
DTITLE=, 1947-1974 [EMI]
DYEAR=1996
DGENRE=Rhythm and Blues
TTITLE0=Ernie K-Doe - Tain't it the Truth
TTITLE1=Earl King - Come On
TTITLE2=Allen and Allen - Heavenly Baby
TTITLE3=Allen Orange - True Love Never Dies
TTITLE4=Blazer Boy - New Orleans Twist
TTITLE5=Irma Thomas - Cry On
TTITLE6=Lee Diamond - It Won't Be Me
TTITLE7=Aaron Neville - Let's Live
TTITLE8=The Del Royals - Grumblin' Fussin' Nag Nag
TTITLE9=Ernie K-Doe - I Cried My Last Tear
TTITLE10=The Showmen - Country Fool
TTITLE11=Ernie K-Doe - Te-Ta-Te-Ta-Ta
TTITLE12=Irma Thomas - I Done Got Over It
TTITLE13=Jessie Hill - Oogsey Moo
TTITLE14=Ernie K-Doe - A Certain Girl
TTITLE15=The Showmen - Fate Planned it This Way
TTITLE16=Tommy Taylor - I Want Somebody
TTITLE17=The Señors - Searching for Olive Oil
TTITLE18=Diamond Joe - Help Yourself
TTITLE19=Al Robinson - The Blues
TTITLE20=Earl King - Always a First Time
TTITLE21=Benny Spellman - Fortune Teller
TTITLE22=Calvin Lee - Valley of Tears
TTITLE23=Earl King - Trick Bag
TTITLE24=Benny Spellman - Every Now and Then
TTITLE25=Eskew Reader - Never Again
TTITLE26=Benny Spellman - Lipstick Traces (On a Cigarette)
TTITLE27=Irma Thomas - Ruler of My Heart
TTITLE28=The Showmen - 39-21-40 Shape
TTITLE29=Irma Thomas - Take a Look
EXTD=
EXTT0=
EXTT1=
EXTT2=
EXTT3=
EXTT4=
EXTT5=
EXTT6=
EXTT7=
EXTT8=
EXTT9=
EXTT10=
EXTT11=
EXTT12=
EXTT13=
EXTT14=
EXTT15=
EXTT16=
EXTT17=
EXTT18=
EXTT19=
EXTT20=
EXTT21=
EXTT22=
EXTT23=
EXTT24=
EXTT25=
EXTT26=
EXTT27=
EXTT28=
EXTT29=
PLAYORDER=
